<?xml version="1.0" encoding="UTF-8"?>
<svg xmlns="http://www.w3.org/2000/svg" version="1.1" xmlns:xlink="http://www.w3.org/1999/xlink" viewBox="0 0 2880 713">
  <!-- Generator: Adobe Illustrator 29.8.1, SVG Export Plug-In . SVG Version: 2.1.1 Build 2)  -->
  <defs>
    <style>
      .st0 {
        fill: url(#linear-gradient1);
        opacity: .4;
      }

      .st1 {
        fill: url(#linear-gradient);
        mix-blend-mode: color-dodge;
      }

      .st2 {
        isolation: isolate;
      }

      .st3 {
        display: none;
      }
    </style>
    <linearGradient id="linear-gradient" x1="1406.7" y1="696.2" x2="1406.7" y2="133.2" gradientUnits="userSpaceOnUse">
      <stop offset=".1" stop-color="#58acac"/>
      <stop offset="1" stop-color="#fff"/>
    </linearGradient>
    <linearGradient id="linear-gradient1" x1="1406.7" y1="696.2" x2="1406.7" y2="133.2" gradientUnits="userSpaceOnUse">
      <stop offset="0" stop-color="#58acac"/>
      <stop offset=".7" stop-color="#f9fcfc"/>
      <stop offset="1" stop-color="#fff"/>
    </linearGradient>
  </defs>
  <g class="st2">
    <g id="Layer_1" class="st3">
      <image width="2880" height="713" xlink:href="bande carrelage.png"/>
    </g>
    <g id="Layer_2">
      <path class="st1" d="M157.9,696.2H58.7v-101.1h99.2v101.1ZM278.2,595h-99.2v101.1h99.2v-101.1ZM393.1,595h-99.2v101.1h99.2v-101.1ZM513.4,595h-99.2v101.1h99.2v-101.1ZM629.1,595h-99.2v101.1h99.2v-101.1ZM749.4,595h-99.2v101.1h99.2v-101.1ZM864.3,595h-99.2v101.1h99.2v-101.1ZM984.6,595h-99.2v101.1h99.2v-101.1ZM1104.8,595h-99.2v101.1h99.2v-101.1ZM1225.1,595h-99.2v101.1h99.2v-101.1ZM1339.9,595h-99.2v101.1h99.2v-101.1ZM1460.2,595h-99.2v101.1h99.2v-101.1ZM1576,595h-99.2v101.1h99.2v-101.1ZM1696.3,595h-99.2v101.1h99.2v-101.1ZM1811.2,595h-99.2v101.1h99.2v-101.1ZM1931.5,595h-99.2v101.1h99.2v-101.1ZM2048.9,595h-99.2v101.1h99.2v-101.1ZM2169.2,595h-99.2v101.1h99.2v-101.1ZM2284.1,595h-99.2v101.1h99.2v-101.1ZM2404.4,595h-99.2v101.1h99.2v-101.1ZM2520.2,595h-99.2v101.1h99.2v-101.1ZM2640.5,595h-99.2v101.1h99.2v-101.1ZM2755.3,595h-99.2v101.1h99.2v-101.1ZM2875.6,595h-99.2v101.1h99.2v-101.1ZM37,595H-62.2v101.1H37v-101.1ZM157.9,480.9H58.7v101.1h99.2v-101.1ZM278.2,480.9h-99.2v101.1h99.2v-101.1ZM393.1,480.9h-99.2v101.1h99.2v-101.1ZM513.4,480.9h-99.2v101.1h99.2v-101.1ZM629.1,480.9h-99.2v101.1h99.2v-101.1ZM749.4,480.9h-99.2v101.1h99.2v-101.1ZM864.3,480.9h-99.2v101.1h99.2v-101.1ZM984.6,480.9h-99.2v101.1h99.2v-101.1ZM1104.8,480.9h-99.2v101.1h99.2v-101.1ZM1225.1,480.9h-99.2v101.1h99.2v-101.1ZM1339.9,480.9h-99.2v101.1h99.2v-101.1ZM1460.2,480.9h-99.2v101.1h99.2v-101.1ZM1576,480.9h-99.2v101.1h99.2v-101.1ZM1696.3,480.9h-99.2v101.1h99.2v-101.1ZM1811.2,480.9h-99.2v101.1h99.2v-101.1ZM1931.5,480.9h-99.2v101.1h99.2v-101.1ZM2048.9,480.9h-99.2v101.1h99.2v-101.1ZM2169.2,480.9h-99.2v101.1h99.2v-101.1ZM2284.1,480.9h-99.2v101.1h99.2v-101.1ZM2404.4,480.9h-99.2v101.1h99.2v-101.1ZM2520.2,480.9h-99.2v101.1h99.2v-101.1ZM2640.5,480.9h-99.2v101.1h99.2v-101.1ZM2755.3,480.9h-99.2v101.1h99.2v-101.1ZM2875.6,480.9h-99.2v101.1h99.2v-101.1ZM37,480.9H-62.2v101.1H37v-101.1ZM157.9,366.8H58.7v101.1h99.2v-101.1ZM278.2,366.8h-99.2v101.1h99.2v-101.1ZM393.1,366.8h-99.2v101.1h99.2v-101.1ZM513.4,366.8h-99.2v101.1h99.2v-101.1ZM629.1,366.8h-99.2v101.1h99.2v-101.1ZM749.4,366.8h-99.2v101.1h99.2v-101.1ZM864.3,366.8h-99.2v101.1h99.2v-101.1ZM984.6,366.8h-99.2v101.1h99.2v-101.1ZM1104.8,366.8h-99.2v101.1h99.2v-101.1ZM1225.1,366.8h-99.2v101.1h99.2v-101.1ZM1339.9,366.8h-99.2v101.1h99.2v-101.1ZM1460.2,366.8h-99.2v101.1h99.2v-101.1ZM1576,366.8h-99.2v101.1h99.2v-101.1ZM1696.3,366.8h-99.2v101.1h99.2v-101.1ZM1811.2,366.8h-99.2v101.1h99.2v-101.1ZM1931.5,366.8h-99.2v101.1h99.2v-101.1ZM2048.9,366.8h-99.2v101.1h99.2v-101.1ZM2169.2,366.8h-99.2v101.1h99.2v-101.1ZM2284.1,366.8h-99.2v101.1h99.2v-101.1ZM2404.4,366.8h-99.2v101.1h99.2v-101.1ZM2520.2,366.8h-99.2v101.1h99.2v-101.1ZM2640.5,366.8h-99.2v101.1h99.2v-101.1ZM2755.3,366.8h-99.2v101.1h99.2v-101.1ZM2875.6,366.8h-99.2v101.1h99.2v-101.1ZM37,366.8H-62.2v101.1H37v-101.1ZM157.9,252.7H58.7v101.1h99.2v-101.1ZM278.2,252.7h-99.2v101.1h99.2v-101.1ZM393.1,252.7h-99.2v101.1h99.2v-101.1ZM513.4,252.7h-99.2v101.1h99.2v-101.1ZM629.1,252.7h-99.2v101.1h99.2v-101.1ZM749.4,252.7h-99.2v101.1h99.2v-101.1ZM864.3,252.7h-99.2v101.1h99.2v-101.1ZM984.6,252.7h-99.2v101.1h99.2v-101.1ZM1104.8,252.7h-99.2v101.1h99.2v-101.1ZM1225.1,252.7h-99.2v101.1h99.2v-101.1ZM1339.9,252.7h-99.2v101.1h99.2v-101.1ZM1460.2,252.7h-99.2v101.1h99.2v-101.1ZM1576,252.7h-99.2v101.1h99.2v-101.1ZM1696.3,252.7h-99.2v101.1h99.2v-101.1ZM1811.2,252.7h-99.2v101.1h99.2v-101.1ZM1931.5,252.7h-99.2v101.1h99.2v-101.1ZM2048.9,252.7h-99.2v101.1h99.2v-101.1ZM2169.2,252.7h-99.2v101.1h99.2v-101.1ZM2284.1,252.7h-99.2v101.1h99.2v-101.1ZM2404.4,252.7h-99.2v101.1h99.2v-101.1ZM2520.2,252.7h-99.2v101.1h99.2v-101.1ZM2640.5,252.7h-99.2v101.1h99.2v-101.1ZM2755.3,252.7h-99.2v101.1h99.2v-101.1ZM2875.6,252.7h-99.2v101.1h99.2v-101.1ZM37,252.7H-62.2v101.1H37v-101.1ZM157.9,133.2H58.7v101.1h99.2v-101.1ZM278.2,133.2h-99.2v101.1h99.2v-101.1ZM393.1,133.2h-99.2v101.1h99.2v-101.1ZM513.4,133.2h-99.2v101.1h99.2v-101.1ZM629.1,133.2h-99.2v101.1h99.2v-101.1ZM749.4,133.2h-99.2v101.1h99.2v-101.1ZM864.3,133.2h-99.2v101.1h99.2v-101.1ZM984.6,133.2h-99.2v101.1h99.2v-101.1ZM1104.8,133.2h-99.2v101.1h99.2v-101.1ZM1225.1,133.2h-99.2v101.1h99.2v-101.1ZM1339.9,133.2h-99.2v101.1h99.2v-101.1ZM1460.2,133.2h-99.2v101.1h99.2v-101.1ZM1576,133.2h-99.2v101.1h99.2v-101.1ZM1696.3,133.2h-99.2v101.1h99.2v-101.1ZM1811.2,133.2h-99.2v101.1h99.2v-101.1ZM1931.5,133.2h-99.2v101.1h99.2v-101.1ZM2048.9,133.2h-99.2v101.1h99.2v-101.1ZM2169.2,133.2h-99.2v101.1h99.2v-101.1ZM2284.1,133.2h-99.2v101.1h99.2v-101.1ZM2404.4,133.2h-99.2v101.1h99.2v-101.1ZM2520.2,133.2h-99.2v101.1h99.2v-101.1ZM2640.5,133.2h-99.2v101.1h99.2v-101.1ZM2755.3,133.2h-99.2v101.1h99.2v-101.1ZM2875.6,133.2h-99.2v101.1h99.2v-101.1ZM37,133.2H-62.2v101.1H37v-101.1Z"/>
      <path class="st0" d="M157.9,696.2H58.7v-101.1h99.2v101.1ZM278.2,595h-99.2v101.1h99.2v-101.1ZM393.1,595h-99.2v101.1h99.2v-101.1ZM513.4,595h-99.2v101.1h99.2v-101.1ZM629.1,595h-99.2v101.1h99.2v-101.1ZM749.4,595h-99.2v101.1h99.2v-101.1ZM864.3,595h-99.2v101.1h99.2v-101.1ZM984.6,595h-99.2v101.1h99.2v-101.1ZM1104.8,595h-99.2v101.1h99.2v-101.1ZM1225.1,595h-99.2v101.1h99.2v-101.1ZM1339.9,595h-99.2v101.1h99.2v-101.1ZM1460.2,595h-99.2v101.1h99.2v-101.1ZM1576,595h-99.2v101.1h99.2v-101.1ZM1696.3,595h-99.2v101.1h99.2v-101.1ZM1811.2,595h-99.2v101.1h99.2v-101.1ZM1931.5,595h-99.2v101.1h99.2v-101.1ZM2048.9,595h-99.2v101.1h99.2v-101.1ZM2169.2,595h-99.2v101.1h99.2v-101.1ZM2284.1,595h-99.2v101.1h99.2v-101.1ZM2404.4,595h-99.2v101.1h99.2v-101.1ZM2520.2,595h-99.2v101.1h99.2v-101.1ZM2640.5,595h-99.2v101.1h99.2v-101.1ZM2755.3,595h-99.2v101.1h99.2v-101.1ZM2875.6,595h-99.2v101.1h99.2v-101.1ZM37,595H-62.2v101.1H37v-101.1ZM157.9,480.9H58.7v101.1h99.2v-101.1ZM278.2,480.9h-99.2v101.1h99.2v-101.1ZM393.1,480.9h-99.2v101.1h99.2v-101.1ZM513.4,480.9h-99.2v101.1h99.2v-101.1ZM629.1,480.9h-99.2v101.1h99.2v-101.1ZM749.4,480.9h-99.2v101.1h99.2v-101.1ZM864.3,480.9h-99.2v101.1h99.2v-101.1ZM984.6,480.9h-99.2v101.1h99.2v-101.1ZM1104.8,480.9h-99.2v101.1h99.2v-101.1ZM1225.1,480.9h-99.2v101.1h99.2v-101.1ZM1339.9,480.9h-99.2v101.1h99.2v-101.1ZM1460.2,480.9h-99.2v101.1h99.2v-101.1ZM1576,480.9h-99.2v101.1h99.2v-101.1ZM1696.3,480.9h-99.2v101.1h99.2v-101.1ZM1811.2,480.9h-99.2v101.1h99.2v-101.1ZM1931.5,480.9h-99.2v101.1h99.2v-101.1ZM2048.9,480.9h-99.2v101.1h99.2v-101.1ZM2169.2,480.9h-99.2v101.1h99.2v-101.1ZM2284.1,480.9h-99.2v101.1h99.2v-101.1ZM2404.4,480.9h-99.2v101.1h99.2v-101.1ZM2520.2,480.9h-99.2v101.1h99.2v-101.1ZM2640.5,480.9h-99.2v101.1h99.2v-101.1ZM2755.3,480.9h-99.2v101.1h99.2v-101.1ZM2875.6,480.9h-99.2v101.1h99.2v-101.1ZM37,480.9H-62.2v101.1H37v-101.1ZM157.9,366.8H58.7v101.1h99.2v-101.1ZM278.2,366.8h-99.2v101.1h99.2v-101.1ZM393.1,366.8h-99.2v101.1h99.2v-101.1ZM513.4,366.8h-99.2v101.1h99.2v-101.1ZM629.1,366.8h-99.2v101.1h99.2v-101.1ZM749.4,366.8h-99.2v101.1h99.2v-101.1ZM864.3,366.8h-99.2v101.1h99.2v-101.1ZM984.6,366.8h-99.2v101.1h99.2v-101.1ZM1104.8,366.8h-99.2v101.1h99.2v-101.1ZM1225.1,366.8h-99.2v101.1h99.2v-101.1ZM1339.9,366.8h-99.2v101.1h99.2v-101.1ZM1460.2,366.8h-99.2v101.1h99.2v-101.1ZM1576,366.8h-99.2v101.1h99.2v-101.1ZM1696.3,366.8h-99.2v101.1h99.2v-101.1ZM1811.2,366.8h-99.2v101.1h99.2v-101.1ZM1931.5,366.8h-99.2v101.1h99.2v-101.1ZM2048.9,366.8h-99.2v101.1h99.2v-101.1ZM2169.2,366.8h-99.2v101.1h99.2v-101.1ZM2284.1,366.8h-99.2v101.1h99.2v-101.1ZM2404.4,366.8h-99.2v101.1h99.2v-101.1ZM2520.2,366.8h-99.2v101.1h99.2v-101.1ZM2640.5,366.8h-99.2v101.1h99.2v-101.1ZM2755.3,366.8h-99.2v101.1h99.2v-101.1ZM2875.6,366.8h-99.2v101.1h99.2v-101.1ZM37,366.8H-62.2v101.1H37v-101.1ZM157.9,252.7H58.7v101.1h99.2v-101.1ZM278.2,252.7h-99.2v101.1h99.2v-101.1ZM393.1,252.7h-99.2v101.1h99.2v-101.1ZM513.4,252.7h-99.2v101.1h99.2v-101.1ZM629.1,252.7h-99.2v101.1h99.2v-101.1ZM749.4,252.7h-99.2v101.1h99.2v-101.1ZM864.3,252.7h-99.2v101.1h99.2v-101.1ZM984.6,252.7h-99.2v101.1h99.2v-101.1ZM1104.8,252.7h-99.2v101.1h99.2v-101.1ZM1225.1,252.7h-99.2v101.1h99.2v-101.1ZM1339.9,252.7h-99.2v101.1h99.2v-101.1ZM1460.2,252.7h-99.2v101.1h99.2v-101.1ZM1576,252.7h-99.2v101.1h99.2v-101.1ZM1696.3,252.7h-99.2v101.1h99.2v-101.1ZM1811.2,252.7h-99.2v101.1h99.2v-101.1ZM1931.5,252.7h-99.2v101.1h99.2v-101.1ZM2048.9,252.7h-99.2v101.1h99.2v-101.1ZM2169.2,252.7h-99.2v101.1h99.2v-101.1ZM2284.1,252.7h-99.2v101.1h99.2v-101.1ZM2404.4,252.7h-99.2v101.1h99.2v-101.1ZM2520.2,252.7h-99.2v101.1h99.2v-101.1ZM2640.5,252.7h-99.2v101.1h99.2v-101.1ZM2755.3,252.7h-99.2v101.1h99.2v-101.1ZM2875.6,252.7h-99.2v101.1h99.2v-101.1ZM37,252.7H-62.2v101.1H37v-101.1ZM157.9,133.2H58.7v101.1h99.2v-101.1ZM278.2,133.2h-99.2v101.1h99.2v-101.1ZM393.1,133.2h-99.2v101.1h99.2v-101.1ZM513.4,133.2h-99.2v101.1h99.2v-101.1ZM629.1,133.2h-99.2v101.1h99.2v-101.1ZM749.4,133.2h-99.2v101.1h99.2v-101.1ZM864.3,133.2h-99.2v101.1h99.2v-101.1ZM984.6,133.2h-99.2v101.1h99.2v-101.1ZM1104.8,133.2h-99.2v101.1h99.2v-101.1ZM1225.1,133.2h-99.2v101.1h99.2v-101.1ZM1339.9,133.2h-99.2v101.1h99.2v-101.1ZM1460.2,133.2h-99.2v101.1h99.2v-101.1ZM1576,133.2h-99.2v101.1h99.2v-101.1ZM1696.3,133.2h-99.2v101.1h99.2v-101.1ZM1811.2,133.2h-99.2v101.1h99.2v-101.1ZM1931.5,133.2h-99.2v101.1h99.2v-101.1ZM2048.9,133.2h-99.2v101.1h99.2v-101.1ZM2169.2,133.2h-99.2v101.1h99.2v-101.1ZM2284.1,133.2h-99.2v101.1h99.2v-101.1ZM2404.4,133.2h-99.2v101.1h99.2v-101.1ZM2520.2,133.2h-99.2v101.1h99.2v-101.1ZM2640.5,133.2h-99.2v101.1h99.2v-101.1ZM2755.3,133.2h-99.2v101.1h99.2v-101.1ZM2875.6,133.2h-99.2v101.1h99.2v-101.1ZM37,133.2H-62.2v101.1H37v-101.1Z"/>
    </g>
  </g>
</svg>